<svg xmlns="http://www.w3.org/2000/svg" width="250" height="160" viewBox="0 0 250 160"><path d="M253.75,20H16.25C12.812,20,10,22.4,10,25.333V174.667C10,177.6,12.812,180,16.25,180h237.5c3.437,0,6.25-2.4,6.25-5.333V25.333C260,22.4,257.187,20,253.75,20ZM247.5,169.333H22.5V62.667h225ZM247.5,52H22.5V30.667h225ZM72.5,41.333c0,2.933-2.812,5.333-6.25,5.333H35c-3.437,0-6.25-2.4-6.25-5.333S31.563,36,35,36H66.25C69.688,36,72.5,38.4,72.5,41.333Z" transform="translate(-10 -20)"/><g><g><g transform="translate(125 89.648) translate(-38 -38) translate(0 0)"><rect width="76" height="76" opacity="0"/><path d="M59.168,55.28,48.385,44.4A25.7,25.7,0,0,0,28.373,3,25.525,25.525,0,0,0,3,28.675,25.525,25.525,0,0,0,28.373,54.349a24.931,24.931,0,0,0,15.541-5.424L54.665,59.837a3.145,3.145,0,0,0,4.5,0,3.236,3.236,0,0,0,0-4.557ZM9.343,28.675A19.031,19.031,0,1,1,28.373,47.931,19.144,19.144,0,0,1,9.343,28.675Z" transform="translate(6.489 6.203)"/></g></g></g></svg>