<svg xmlns="http://www.w3.org/2000/svg" width="197.594" height="160" viewBox="0 0 197.594 160">
    <g transform="translate(-5 -5)">
        <path d="M185.657,5H21.937C12.6,5,5,11.152,5,18.714V126.143c0,7.563,7.6,13.714,16.937,13.714H74.871c-1.626,6.478-6.222,12.068-14.041,16.951a4.089,4.089,0,0,0-1.894,5.1,5.686,5.686,0,0,0,5.342,3.1h79.037a5.716,5.716,0,0,0,5.312-3.022,4.054,4.054,0,0,0-1.712-5.071c-8.666-5.807-13.455-11.421-14.639-17.049h53.381c9.339,0,16.937-6.152,16.937-13.714V18.714C202.593,11.152,195,5,185.657,5ZM21.937,14.143h163.72c3.112,0,5.646,2.051,5.646,4.571v89.143H16.291V18.714C16.291,16.194,18.824,14.143,21.937,14.143ZM129.69,155.857H77.951a31.29,31.29,0,0,0,8.438-16h34.43C121.56,145.319,124.526,150.667,129.69,155.857Zm55.967-25.143H21.937c-3.112,0-5.646-2.051-5.646-4.571V117H191.3v9.143C191.3,128.663,188.769,130.714,185.657,130.714Z"/>
        <path d="M79.286,110.287H70.143a4.571,4.571,0,0,0,0,9.143h9.143a4.571,4.571,0,0,0,0-9.143Zm35.083-57.538a4.57,4.57,0,0,0,6.406.866l13.853-10.549a4.571,4.571,0,0,0,0-7.272L120.775,25.244a4.571,4.571,0,0,0-5.54,7.272l9.078,6.913-9.078,6.913A4.569,4.569,0,0,0,114.368,52.749ZM65.571,39.43a4.574,4.574,0,0,0,1.8,3.636L81.225,53.615a4.571,4.571,0,1,0,5.54-7.272L77.688,39.43l9.078-6.913a4.571,4.571,0,1,0-5.54-7.272L67.373,35.794A4.574,4.574,0,0,0,65.571,39.43ZM91.732,66.613a4.559,4.559,0,0,0,5.8-2.85l15.585-45.714a4.571,4.571,0,1,0-8.652-2.951L88.882,60.811A4.571,4.571,0,0,0,91.732,66.613ZM17.571,87.43H125a4.571,4.571,0,1,0,0-9.143H17.571a4.571,4.571,0,0,0,0,9.143Zm0-20.571H61a4.571,4.571,0,1,0,0-9.143H17.571a4.571,4.571,0,1,0,0,9.143Zm0-20.571H51.857a4.571,4.571,0,1,0,0-9.143H17.571a4.571,4.571,0,1,0,0,9.143Zm0-20.571h48a4.571,4.571,0,0,0,0-9.143h-48a4.571,4.571,0,1,0,0,9.143Z"
              transform="translate(29.082 8.999)"/>
    </g>
</svg>
